<svg width="36" height="36" viewBox="0 0 36 36" fill="none" xmlns="http://www.w3.org/2000/svg">
<path d="M0 14C0 6.26801 6.26801 0 14 0H22C29.732 0 36 6.26801 36 14V22C36 29.732 29.732 36 22 36H14C6.26801 36 0 29.732 0 22V14Z" fill="#FEF3F2"/>
<g clip-path="url(#clip0_35_619)">
<path d="M24.8921 22.2501L19.2254 12.3334C19.1019 12.1154 18.9227 11.934 18.7062 11.8079C18.4896 11.6817 18.2435 11.6152 17.9929 11.6152C17.7423 11.6152 17.4962 11.6817 17.2797 11.8079C17.0632 11.934 16.884 12.1154 16.7604 12.3334L11.0938 22.2501C10.9689 22.4664 10.9034 22.7118 10.9039 22.9616C10.9045 23.2114 10.9711 23.4565 11.0969 23.6723C11.2228 23.888 11.4034 24.0667 11.6205 24.1901C11.8377 24.3135 12.0836 24.3773 12.3333 24.3751H23.6667C23.9152 24.3748 24.1593 24.3092 24.3745 24.1847C24.5897 24.0603 24.7683 23.8814 24.8925 23.6661C25.0166 23.4508 25.082 23.2066 25.0819 22.958C25.0818 22.7095 25.0164 22.4653 24.8921 22.2501Z" stroke="#F04438" stroke-width="1.41667" stroke-linecap="round" stroke-linejoin="round"/>
<path d="M18 15.875V18.7083" stroke="#F04438" stroke-width="1.41667" stroke-linecap="round" stroke-linejoin="round"/>
<path d="M18 21.5417H18.0071" stroke="#F04438" stroke-width="1.41667" stroke-linecap="round" stroke-linejoin="round"/>
</g>
<defs>
<clipPath id="clip0_35_619">
<rect width="17" height="17" fill="white" transform="translate(9.5 9.5)"/>
</clipPath>
</defs>
</svg>
